<?xml version="1.0" encoding="UTF-8" standalone="no"?> <!-- Generator: Gravit.io --> <svg xmlns="http://www.w3.org/2000/svg" xmlns:xlink="http://www.w3.org/1999/xlink" style="isolation:isolate" viewBox="0 0 512 80" width="512" height="80"><defs><clipPath id="_clipPath_NwOIpsgUtAaer7LrHiqiv3iskJnLYq5I"><rect width="512" height="80"></rect></clipPath></defs><g clip-path="url(#_clipPath_NwOIpsgUtAaer7LrHiqiv3iskJnLYq5I)"><g id="Group"><linearGradient id="_lgradient_33" x1="-0.0005070582877964025%" y1="50%" x2="99.9993151183971%" y2="50%"><stop offset="0%" stop-opacity="1" style="stop-color:rgb(77,179,179)"></stop><stop offset="10%" stop-opacity="1" style="stop-color:rgb(69,176,176)"></stop><stop offset="20%" stop-opacity="1" style="stop-color:rgb(61,173,173)"></stop><stop offset="30.000000000000004%" stop-opacity="1" style="stop-color:rgb(53,170,170)"></stop><stop offset="40%" stop-opacity="1" style="stop-color:rgb(46,167,167)"></stop><stop offset="50%" stop-opacity="1" style="stop-color:rgb(38,163,163)"></stop><stop offset="60%" stop-opacity="1" style="stop-color:rgb(30,160,160)"></stop><stop offset="70%" stop-opacity="1" style="stop-color:rgb(23,157,157)"></stop><stop offset="80%" stop-opacity="1" style="stop-color:rgb(15,154,154)"></stop><stop offset="89.99999999999999%" stop-opacity="1" style="stop-color:rgb(7,151,151)"></stop><stop offset="99.99999999999999%" stop-opacity="1" style="stop-color:rgb(0,147,147)"></stop></linearGradient><path d=" M 11.322 25.379 L 11.322 59.602 L 21.018 59.602 L 21.018 48.418 L 32.49 48.418 L 43.578 59.602 L 55.242 59.602 L 44.25 48.418 L 46.794 48.418 C 47.818 48.418 48.834 48.162 49.842 47.649 L 49.842 47.649 C 50.85 47.138 51.753 46.474 52.553 45.659 L 52.553 45.659 C 53.354 44.843 54.001 43.939 54.498 42.946 L 54.498 42.946 C 54.993 41.954 55.242 40.962 55.242 39.97 L 55.242 39.97 L 55.242 33.827 C 55.242 32.834 54.993 31.843 54.498 30.851 L 54.498 30.851 C 54.001 29.858 53.354 28.954 52.553 28.138 L 52.553 28.138 C 51.753 27.322 50.85 26.659 49.842 26.147 L 49.842 26.147 C 48.834 25.636 47.818 25.379 46.794 25.379 L 46.794 25.379 L 11.322 25.379 Z M 21.018 33.202 L 43.29 33.202 C 43.897 33.202 44.426 33.427 44.874 33.874 L 44.874 33.874 C 45.322 34.322 45.546 34.963 45.546 35.795 L 45.546 35.795 L 45.546 38.001 C 45.546 38.834 45.322 39.475 44.874 39.922 L 44.874 39.922 C 44.426 40.37 43.897 40.595 43.29 40.595 L 43.29 40.595 L 21.018 40.595 L 21.018 33.202 Z " fill="url(#_lgradient_33)"></path><linearGradient id="_lgradient_34" x1="-0.0007884114583411872%" y1="50.00000000000004%" x2="99.99938107638897%" y2="50.00000000000004%"><stop offset="0%" stop-opacity="1" style="stop-color:rgb(77,179,179)"></stop><stop offset="10%" stop-opacity="1" style="stop-color:rgb(69,176,176)"></stop><stop offset="20%" stop-opacity="1" style="stop-color:rgb(61,173,173)"></stop><stop offset="30.000000000000004%" stop-opacity="1" style="stop-color:rgb(53,170,170)"></stop><stop offset="40%" stop-opacity="1" style="stop-color:rgb(46,167,167)"></stop><stop offset="50%" stop-opacity="1" style="stop-color:rgb(38,163,163)"></stop><stop offset="60%" stop-opacity="1" style="stop-color:rgb(30,160,160)"></stop><stop offset="70%" stop-opacity="1" style="stop-color:rgb(23,157,157)"></stop><stop offset="80%" stop-opacity="1" style="stop-color:rgb(15,154,154)"></stop><stop offset="89.99999999999999%" stop-opacity="1" style="stop-color:rgb(7,151,151)"></stop><stop offset="99.99999999999999%" stop-opacity="1" style="stop-color:rgb(0,147,147)"></stop></linearGradient><path d=" M 108.953 25.379 L 108.953 59.602 L 146.585 59.602 C 147.609 59.602 148.625 59.348 149.633 58.835 L 149.633 58.835 C 150.641 58.323 151.544 57.658 152.344 56.844 L 152.344 56.844 C 153.144 56.027 153.792 55.123 154.288 54.13 L 154.288 54.13 C 154.784 53.138 155.033 52.146 155.033 51.154 L 155.033 51.154 L 155.033 47.027 C 155.033 46.516 154.936 45.97 154.745 45.393 L 154.745 45.393 C 154.553 44.817 154.305 44.251 154.001 43.69 L 154.001 43.69 C 153.696 43.13 153.352 42.626 152.969 42.178 L 152.969 42.178 C 152.585 41.731 152.184 41.363 151.768 41.075 L 151.768 41.075 C 152.024 40.563 152.272 40.051 152.513 39.539 L 152.513 39.539 C 152.753 39.027 152.873 38.499 152.873 37.954 L 152.873 37.954 L 152.873 33.827 C 152.873 32.834 152.624 31.843 152.128 30.851 L 152.128 30.851 C 151.633 29.858 150.985 28.954 150.184 28.138 L 150.184 28.138 C 149.384 27.322 148.481 26.659 147.473 26.147 L 147.473 26.147 C 146.465 25.636 145.448 25.379 144.424 25.379 L 144.424 25.379 L 108.953 25.379 Z M 118.648 33.202 L 140.921 33.202 C 141.528 33.202 142.056 33.427 142.505 33.874 L 142.505 33.874 C 142.953 34.322 143.177 34.963 143.177 35.795 L 143.177 35.795 L 143.177 35.986 C 143.177 36.819 142.953 37.459 142.505 37.906 L 142.505 37.906 C 142.056 38.355 141.528 38.578 140.921 38.578 L 140.921 38.578 L 118.648 38.578 L 118.648 33.202 Z M 118.648 46.402 L 143.081 46.402 C 143.688 46.402 144.217 46.626 144.665 47.075 L 144.665 47.075 C 145.112 47.523 145.337 48.162 145.337 48.994 L 145.337 48.994 L 145.337 49.188 C 145.337 50.018 145.112 50.659 144.665 51.107 L 144.665 51.107 C 144.217 51.554 143.688 51.779 143.081 51.779 L 143.081 51.779 L 118.648 51.779 L 118.648 46.402 Z " fill="url(#_lgradient_34)"></path><linearGradient id="_lgradient_35" x1="0.0012718579234682892%" y1="50%" x2="100.00109403460833%" y2="50%"><stop offset="0%" stop-opacity="1" style="stop-color:rgb(77,179,179)"></stop><stop offset="10%" stop-opacity="1" style="stop-color:rgb(69,176,176)"></stop><stop offset="20%" stop-opacity="1" style="stop-color:rgb(61,173,173)"></stop><stop offset="30.000000000000004%" stop-opacity="1" style="stop-color:rgb(53,170,170)"></stop><stop offset="40%" stop-opacity="1" style="stop-color:rgb(46,167,167)"></stop><stop offset="50%" stop-opacity="1" style="stop-color:rgb(38,163,163)"></stop><stop offset="60%" stop-opacity="1" style="stop-color:rgb(30,160,160)"></stop><stop offset="70%" stop-opacity="1" style="stop-color:rgb(23,157,157)"></stop><stop offset="80%" stop-opacity="1" style="stop-color:rgb(15,154,154)"></stop><stop offset="89.99999999999999%" stop-opacity="1" style="stop-color:rgb(7,151,151)"></stop><stop offset="99.99999999999999%" stop-opacity="1" style="stop-color:rgb(0,147,147)"></stop></linearGradient><path d=" M 167.32 25.379 C 166.296 25.379 165.281 25.636 164.272 26.147 L 164.272 26.147 C 163.264 26.659 162.361 27.322 161.561 28.138 L 161.561 28.138 C 160.76 28.954 160.112 29.858 159.617 30.851 L 159.617 30.851 C 159.12 31.843 158.872 32.834 158.872 33.827 L 158.872 33.827 L 158.872 37.954 C 158.872 38.946 159.008 39.939 159.281 40.93 L 159.281 40.93 C 159.553 41.923 159.952 42.827 160.48 43.642 L 160.48 43.642 C 161.009 44.458 161.664 45.123 162.449 45.634 L 162.449 45.634 C 163.233 46.147 164.136 46.402 165.16 46.402 L 165.16 46.402 L 190.841 46.402 C 191.449 46.402 191.976 46.626 192.425 47.075 L 192.425 47.075 C 192.872 47.523 193.096 48.162 193.096 48.994 L 193.096 48.994 L 193.096 49.188 C 193.096 50.018 192.872 50.659 192.425 51.107 L 192.425 51.107 C 191.976 51.554 191.449 51.779 190.841 51.779 L 190.841 51.779 L 158.872 51.779 L 158.872 59.602 L 194.345 59.602 C 195.368 59.602 196.385 59.348 197.392 58.835 L 197.392 58.835 C 198.401 58.323 199.304 57.658 200.105 56.844 L 200.105 56.844 C 200.904 56.027 201.552 55.123 202.049 54.13 L 202.049 54.13 C 202.545 53.138 202.792 52.146 202.792 51.154 L 202.792 51.154 L 202.792 47.027 C 202.792 46.035 202.656 45.042 202.384 44.049 L 202.384 44.049 C 202.113 43.059 201.712 42.154 201.185 41.339 L 201.185 41.339 C 200.656 40.523 200 39.858 199.216 39.346 L 199.216 39.346 C 198.432 38.834 197.528 38.578 196.505 38.578 L 196.505 38.578 L 170.873 38.578 C 170.232 38.578 169.688 38.355 169.241 37.906 L 169.241 37.906 C 168.792 37.459 168.569 36.819 168.569 35.986 L 168.569 35.986 L 168.569 35.795 C 168.569 34.963 168.792 34.322 169.241 33.874 L 169.241 33.874 C 169.688 33.427 170.232 33.202 170.873 33.202 L 170.873 33.202 L 202.792 33.202 L 202.792 25.379 L 167.32 25.379 Z " fill="url(#_lgradient_35)"></path><linearGradient id="_lgradient_36" x1="-0.0014698391574086145%" y1="50%" x2="100.0007888396853%" y2="50%"><stop offset="0%" stop-opacity="1" style="stop-color:rgb(77,179,179)"></stop><stop offset="10%" stop-opacity="1" style="stop-color:rgb(69,176,176)"></stop><stop offset="20%" stop-opacity="1" style="stop-color:rgb(61,173,173)"></stop><stop offset="30.000000000000004%" stop-opacity="1" style="stop-color:rgb(53,170,170)"></stop><stop offset="40%" stop-opacity="1" style="stop-color:rgb(46,167,167)"></stop><stop offset="50%" stop-opacity="1" style="stop-color:rgb(38,163,163)"></stop><stop offset="60%" stop-opacity="1" style="stop-color:rgb(30,160,160)"></stop><stop offset="70%" stop-opacity="1" style="stop-color:rgb(23,157,157)"></stop><stop offset="80%" stop-opacity="1" style="stop-color:rgb(15,154,154)"></stop><stop offset="89.99999999999999%" stop-opacity="1" style="stop-color:rgb(7,151,151)"></stop><stop offset="99.99999999999999%" stop-opacity="1" style="stop-color:rgb(0,147,147)"></stop></linearGradient><path d=" M 272.393 25.379 C 271.367 25.379 270.352 25.636 269.344 26.147 L 269.344 26.147 C 268.336 26.659 267.432 27.322 266.632 28.138 L 266.632 28.138 C 265.832 28.954 265.184 29.858 264.688 30.851 L 264.688 30.851 C 264.191 31.843 263.944 32.834 263.944 33.827 L 263.944 33.827 L 263.944 51.154 C 263.944 52.146 264.191 53.138 264.688 54.13 L 264.688 54.13 C 265.184 55.123 265.832 56.027 266.632 56.844 L 266.632 56.844 C 267.432 57.658 268.336 58.323 269.344 58.835 L 269.344 58.835 C 270.352 59.348 271.367 59.602 272.393 59.602 L 272.393 59.602 L 307.527 59.602 L 307.527 51.779 L 275.943 51.779 C 275.302 51.779 274.76 51.554 274.312 51.107 L 274.312 51.107 C 273.863 50.659 273.64 50.018 273.64 49.188 L 273.64 49.188 L 273.64 35.795 C 273.64 34.963 273.863 34.322 274.312 33.874 L 274.312 33.874 C 274.76 33.427 275.302 33.202 275.943 33.202 L 275.943 33.202 L 307.527 33.202 L 307.527 25.379 L 272.393 25.379 Z " fill="url(#_lgradient_36)"></path><linearGradient id="_lgradient_37" x1="0.0004269125683187269%" y1="50%" x2="100.00024908925332%" y2="50%"><stop offset="0%" stop-opacity="1" style="stop-color:rgb(77,179,179)"></stop><stop offset="10%" stop-opacity="1" style="stop-color:rgb(69,176,176)"></stop><stop offset="20%" stop-opacity="1" style="stop-color:rgb(61,173,173)"></stop><stop offset="30.000000000000004%" stop-opacity="1" style="stop-color:rgb(53,170,170)"></stop><stop offset="40%" stop-opacity="1" style="stop-color:rgb(46,167,167)"></stop><stop offset="50%" stop-opacity="1" style="stop-color:rgb(38,163,163)"></stop><stop offset="60%" stop-opacity="1" style="stop-color:rgb(30,160,160)"></stop><stop offset="70%" stop-opacity="1" style="stop-color:rgb(23,157,157)"></stop><stop offset="80%" stop-opacity="1" style="stop-color:rgb(15,154,154)"></stop><stop offset="89.99999999999999%" stop-opacity="1" style="stop-color:rgb(7,151,151)"></stop><stop offset="99.99999999999999%" stop-opacity="1" style="stop-color:rgb(0,147,147)"></stop></linearGradient><path d=" M 311.367 25.379 L 311.367 59.602 L 321.064 59.602 L 321.064 48.418 L 332.535 48.418 L 343.623 59.602 L 355.287 59.602 L 344.295 48.418 L 346.84 48.418 C 347.863 48.418 348.879 48.162 349.886 47.649 L 349.886 47.649 C 350.895 47.138 351.799 46.474 352.6 45.659 L 352.6 45.659 C 353.398 44.843 354.047 43.939 354.543 42.946 L 354.543 42.946 C 355.039 41.954 355.287 40.962 355.287 39.97 L 355.287 39.97 L 355.287 33.827 C 355.287 32.834 355.039 31.843 354.543 30.851 L 354.543 30.851 C 354.047 29.858 353.398 28.954 352.6 28.138 L 352.6 28.138 C 351.799 27.322 350.895 26.659 349.886 26.147 L 349.886 26.147 C 348.879 25.636 347.863 25.379 346.84 25.379 L 346.84 25.379 L 311.367 25.379 Z M 321.064 33.202 L 343.336 33.202 C 343.944 33.202 344.471 33.427 344.92 33.874 L 344.92 33.874 C 345.367 34.322 345.592 34.963 345.592 35.795 L 345.592 35.795 L 345.592 38.001 C 345.592 38.834 345.367 39.475 344.92 39.922 L 344.92 39.922 C 344.471 40.37 343.944 40.595 343.336 40.595 L 343.336 40.595 L 321.064 40.595 L 321.064 33.202 Z " fill="url(#_lgradient_37)"></path><linearGradient id="_lgradient_38" x1="0.0001067850638136747%" y1="50%" x2="99.99992896174862%" y2="50%"><stop offset="0%" stop-opacity="1" style="stop-color:rgb(77,179,179)"></stop><stop offset="10%" stop-opacity="1" style="stop-color:rgb(69,176,176)"></stop><stop offset="20%" stop-opacity="1" style="stop-color:rgb(61,173,173)"></stop><stop offset="30.000000000000004%" stop-opacity="1" style="stop-color:rgb(53,170,170)"></stop><stop offset="40%" stop-opacity="1" style="stop-color:rgb(46,167,167)"></stop><stop offset="50%" stop-opacity="1" style="stop-color:rgb(38,163,163)"></stop><stop offset="60%" stop-opacity="1" style="stop-color:rgb(30,160,160)"></stop><stop offset="70%" stop-opacity="1" style="stop-color:rgb(23,157,157)"></stop><stop offset="80%" stop-opacity="1" style="stop-color:rgb(15,154,154)"></stop><stop offset="89.99999999999999%" stop-opacity="1" style="stop-color:rgb(7,151,151)"></stop><stop offset="99.99999999999999%" stop-opacity="1" style="stop-color:rgb(0,147,147)"></stop></linearGradient><path d=" M 408.998 25.379 L 408.998 59.602 L 418.695 59.602 L 418.695 48.418 L 444.471 48.418 C 445.494 48.418 446.509 48.162 447.519 47.649 L 447.519 47.649 C 448.527 47.138 449.43 46.474 450.23 45.659 L 450.23 45.659 C 451.029 44.843 451.677 43.939 452.174 42.946 L 452.174 42.946 C 452.67 41.954 452.918 40.962 452.918 39.97 L 452.918 39.97 L 452.918 33.827 C 452.918 32.834 452.67 31.843 452.174 30.851 L 452.174 30.851 C 451.677 29.858 451.029 28.954 450.23 28.138 L 450.23 28.138 C 449.43 27.322 448.527 26.659 447.519 26.147 L 447.519 26.147 C 446.509 25.636 445.494 25.379 444.471 25.379 L 444.471 25.379 L 408.998 25.379 Z M 418.695 33.202 L 440.966 33.202 C 441.574 33.202 442.101 33.427 442.55 33.874 L 442.55 33.874 C 442.998 34.322 443.223 34.963 443.223 35.795 L 443.223 35.795 L 443.223 38.001 C 443.223 38.834 442.998 39.475 442.55 39.922 L 442.55 39.922 C 442.101 40.37 441.574 40.595 440.966 40.595 L 440.966 40.595 L 418.695 40.595 L 418.695 33.202 Z " fill="url(#_lgradient_38)"></path><linearGradient id="_lgradient_39" x1="-0.0004269125682299091%" y1="50%" x2="99.99939526411677%" y2="50%"><stop offset="0%" stop-opacity="1" style="stop-color:rgb(77,179,179)"></stop><stop offset="10%" stop-opacity="1" style="stop-color:rgb(69,176,176)"></stop><stop offset="20%" stop-opacity="1" style="stop-color:rgb(61,173,173)"></stop><stop offset="30.000000000000004%" stop-opacity="1" style="stop-color:rgb(53,170,170)"></stop><stop offset="40%" stop-opacity="1" style="stop-color:rgb(46,167,167)"></stop><stop offset="50%" stop-opacity="1" style="stop-color:rgb(38,163,163)"></stop><stop offset="60%" stop-opacity="1" style="stop-color:rgb(30,160,160)"></stop><stop offset="70%" stop-opacity="1" style="stop-color:rgb(23,157,157)"></stop><stop offset="80%" stop-opacity="1" style="stop-color:rgb(15,154,154)"></stop><stop offset="89.99999999999999%" stop-opacity="1" style="stop-color:rgb(7,151,151)"></stop><stop offset="99.99999999999999%" stop-opacity="1" style="stop-color:rgb(0,147,147)"></stop></linearGradient><path d=" M 465.207 25.379 C 464.182 25.379 463.166 25.636 462.158 26.147 L 462.158 26.147 C 461.151 26.659 460.246 27.322 459.447 28.138 L 459.447 28.138 C 458.647 28.954 457.998 29.858 457.502 30.851 L 457.502 30.851 C 457.006 31.843 456.758 32.834 456.758 33.827 L 456.758 33.827 L 456.758 37.954 C 456.758 38.946 456.895 39.939 457.166 40.93 L 457.166 40.93 C 457.437 41.923 457.838 42.827 458.367 43.642 L 458.367 43.642 C 458.894 44.458 459.551 45.123 460.334 45.634 L 460.334 45.634 C 461.117 46.147 462.022 46.402 463.047 46.402 L 463.047 46.402 L 488.727 46.402 C 489.334 46.402 489.862 46.626 490.311 47.075 L 490.311 47.075 C 490.758 47.523 490.982 48.162 490.982 48.994 L 490.982 48.994 L 490.982 49.188 C 490.982 50.018 490.758 50.659 490.311 51.107 L 490.311 51.107 C 489.862 51.554 489.334 51.779 488.727 51.779 L 488.727 51.779 L 456.758 51.779 L 456.758 59.602 L 492.23 59.602 C 493.254 59.602 494.27 59.348 495.28 58.835 L 495.28 58.835 C 496.287 58.323 497.189 57.658 497.99 56.844 L 497.99 56.844 C 498.789 56.027 499.438 55.123 499.934 54.13 L 499.934 54.13 C 500.429 53.138 500.678 52.146 500.678 51.154 L 500.678 51.154 L 500.678 47.027 C 500.678 46.035 500.541 45.042 500.269 44.049 L 500.269 44.049 C 499.998 43.059 499.598 42.154 499.07 41.339 L 499.07 41.339 C 498.543 40.523 497.887 39.858 497.101 39.346 L 497.101 39.346 C 496.318 38.834 495.414 38.578 494.39 38.578 L 494.39 38.578 L 468.758 38.578 C 468.118 38.578 467.574 38.355 467.127 37.906 L 467.127 37.906 C 466.678 37.459 466.455 36.819 466.455 35.986 L 466.455 35.986 L 466.455 35.795 C 466.455 34.963 466.678 34.322 467.127 33.874 L 467.127 33.874 C 467.574 33.427 468.118 33.202 468.758 33.202 L 468.758 33.202 L 500.678 33.202 L 500.678 25.379 L 465.207 25.379 Z " fill="url(#_lgradient_39)"></path><linearGradient id="_lgradient_40" x1="0.0010023818338922297%" y1="49.99956929178211%" x2="100.00035657245357%" y2="49.99956929178211%"><stop offset="0%" stop-opacity="1" style="stop-color:rgb(128,0,128)"></stop><stop offset="10%" stop-opacity="1" style="stop-color:rgb(125,19,144)"></stop><stop offset="20%" stop-opacity="1" style="stop-color:rgb(122,35,157)"></stop><stop offset="30.000000000000004%" stop-opacity="1" style="stop-color:rgb(120,48,167)"></stop><stop offset="40%" stop-opacity="1" style="stop-color:rgb(119,58,175)"></stop><stop offset="50%" stop-opacity="1" style="stop-color:rgb(118,65,181)"></stop><stop offset="60%" stop-opacity="1" style="stop-color:rgb(117,70,185)"></stop><stop offset="70%" stop-opacity="1" style="stop-color:rgb(117,73,187)"></stop><stop offset="80%" stop-opacity="1" style="stop-color:rgb(117,75,189)"></stop><stop offset="89.99999999999999%" stop-opacity="1" style="stop-color:rgb(117,75,189)"></stop><stop offset="99.99999999999999%" stop-opacity="1" style="stop-color:rgb(117,75,189)"></stop></linearGradient><path d=" M 84.499 19.849 L 84.201 20.982 C 83.467 20.905 82.721 20.867 81.967 20.867 L 81.967 20.867 C 81.958 20.867 81.951 20.867 81.944 20.867 L 81.944 20.867 C 81.827 19.893 81.009 19.136 80.004 19.136 L 80.004 19.136 L 74.732 19.136 C 73.439 19.136 72.499 20.368 72.839 21.615 L 72.839 21.615 L 73.148 22.746 C 72.457 23.057 71.786 23.4 71.136 23.778 L 71.136 23.778 C 70.549 22.992 69.46 22.744 68.59 23.248 L 68.59 23.248 L 64.026 25.882 C 62.905 26.529 62.706 28.065 63.625 28.976 L 63.625 28.976 L 64.46 29.803 C 64.13 30.258 63.823 30.731 63.529 31.212 L 63.529 31.212 C 63.43 31.375 63.326 31.535 63.23 31.701 L 63.23 31.701 C 62.329 31.314 61.264 31.642 60.76 32.512 L 60.76 32.512 L 58.564 36.317 L 58.125 37.077 C 57.477 38.198 58.073 39.626 59.325 39.957 L 59.325 39.957 L 60.343 40.224 L 60.457 40.255 C 60.382 40.989 60.343 41.736 60.343 42.489 L 60.343 42.489 C 60.343 42.497 60.344 42.505 60.344 42.513 L 60.344 42.513 C 59.37 42.629 58.613 43.447 58.613 44.452 L 58.613 44.452 L 58.613 49.723 C 58.613 51.017 59.842 51.958 61.092 51.617 L 61.092 51.617 L 62.224 51.309 C 62.533 51.999 62.876 52.672 63.253 53.321 L 63.253 53.321 C 62.468 53.909 62.219 54.997 62.723 55.867 L 62.723 55.867 L 65.359 60.432 C 66.006 61.552 67.54 61.75 68.452 60.832 L 68.452 60.832 L 69.279 59.997 C 69.888 60.439 70.522 60.85 71.176 61.226 L 71.176 61.226 C 70.788 62.128 71.119 63.194 71.99 63.696 L 71.99 63.696 L 76.554 66.332 C 77.675 66.981 79.103 66.385 79.433 65.132 L 79.433 65.132 L 79.731 63.999 C 80.466 64.076 81.212 64.114 81.967 64.114 L 81.967 64.114 L 81.991 64.114 C 82.106 65.087 82.924 65.844 83.928 65.844 L 83.928 65.844 L 89.201 65.844 C 90.493 65.844 91.433 64.613 91.093 63.364 L 91.093 63.364 L 90.784 62.232 C 91.476 61.923 92.146 61.579 92.797 61.202 L 92.797 61.202 C 93.384 61.988 94.473 62.236 95.343 61.733 L 95.343 61.733 L 99.907 59.098 C 101.029 58.451 101.226 56.916 100.307 56.005 L 100.307 56.005 L 99.472 55.177 C 99.914 54.57 100.324 53.934 100.702 53.28 L 100.702 53.28 C 101.603 53.666 102.669 53.338 103.172 52.467 L 103.172 52.467 L 104.938 49.41 L 105.808 47.903 C 106.454 46.784 105.859 45.355 104.608 45.023 L 104.608 45.023 L 103.475 44.725 C 103.519 44.305 103.547 43.88 103.565 43.456 L 103.565 43.456 C 103.575 43.23 103.579 43.001 103.583 42.774 L 103.583 42.774 C 103.584 42.679 103.59 42.585 103.59 42.489 L 103.59 42.489 L 103.59 42.465 C 104.562 42.351 105.319 41.531 105.319 40.528 L 105.319 40.528 L 105.319 35.256 C 105.319 34.872 105.209 34.518 105.023 34.221 L 105.023 34.221 C 104.584 33.518 103.717 33.124 102.841 33.363 L 102.841 33.363 L 101.71 33.672 C 101.402 32.981 101.056 32.309 100.68 31.659 L 100.68 31.659 C 101.466 31.072 101.713 29.984 101.21 29.113 L 101.21 29.113 L 99.165 25.571 L 98.574 24.549 C 98.366 24.188 98.06 23.934 97.719 23.772 L 97.719 23.772 C 96.998 23.428 96.099 23.527 95.481 24.149 L 95.481 24.149 L 94.654 24.983 C 94.044 24.542 93.411 24.132 92.757 23.755 L 92.757 23.755 C 93.144 22.853 92.815 21.786 91.944 21.285 L 91.944 21.285 L 87.379 18.648 C 87.067 18.469 86.73 18.385 86.401 18.385 L 86.401 18.385 C 85.547 18.385 84.737 18.946 84.499 19.849 Z M 68.039 42.489 C 68.039 41.057 68.26 39.677 68.663 38.375 L 68.663 38.375 C 69.13 36.867 69.843 35.464 70.763 34.221 L 70.763 34.221 C 71.057 33.823 71.372 33.441 71.706 33.078 L 71.706 33.078 C 72.024 32.732 72.36 32.399 72.712 32.088 L 72.712 32.088 C 72.908 31.912 73.109 31.746 73.315 31.583 L 73.315 31.583 C 75.691 29.695 78.696 28.564 81.967 28.564 L 81.967 28.564 C 84.877 28.564 87.576 29.457 89.81 30.982 L 89.81 30.982 C 90.353 31.353 90.869 31.761 91.352 32.202 L 91.352 32.202 C 92.024 32.815 92.631 33.491 93.171 34.221 L 93.171 34.221 C 94.882 36.534 95.893 39.393 95.893 42.489 L 95.893 42.489 C 95.893 42.585 95.889 42.679 95.887 42.774 L 95.887 42.774 C 95.881 43.001 95.872 43.23 95.856 43.456 L 95.856 43.456 C 95.816 44.041 95.741 44.62 95.629 45.185 L 95.629 45.185 C 95.142 47.673 93.992 49.924 92.369 51.747 L 92.369 51.747 C 89.82 54.612 86.105 56.416 81.967 56.416 L 81.967 56.416 C 74.275 56.416 68.039 50.18 68.039 42.489 Z " fill="url(#_lgradient_40)"></path><linearGradient id="_lgradient_41" x1="-0.003147787551149861%" y1="50%" x2="99.99729805949107%" y2="50%"><stop offset="0%" stop-opacity="1" style="stop-color:rgb(128,0,128)"></stop><stop offset="10%" stop-opacity="1" style="stop-color:rgb(125,19,144)"></stop><stop offset="20%" stop-opacity="1" style="stop-color:rgb(122,35,157)"></stop><stop offset="30.000000000000004%" stop-opacity="1" style="stop-color:rgb(120,48,167)"></stop><stop offset="40%" stop-opacity="1" style="stop-color:rgb(119,58,175)"></stop><stop offset="50%" stop-opacity="1" style="stop-color:rgb(118,65,181)"></stop><stop offset="60%" stop-opacity="1" style="stop-color:rgb(117,70,185)"></stop><stop offset="70%" stop-opacity="1" style="stop-color:rgb(117,73,187)"></stop><stop offset="80%" stop-opacity="1" style="stop-color:rgb(117,75,189)"></stop><stop offset="89.99999999999999%" stop-opacity="1" style="stop-color:rgb(117,75,189)"></stop><stop offset="99.99999999999999%" stop-opacity="1" style="stop-color:rgb(117,75,189)"></stop></linearGradient><path d=" M 77.308 36.684 C 75.61 38.048 74.52 40.141 74.52 42.489 L 74.52 42.489 C 74.52 42.585 74.53 42.679 74.534 42.774 L 74.534 42.774 C 74.542 43.005 74.559 43.231 74.588 43.456 L 74.588 43.456 C 74.608 43.601 74.628 43.747 74.655 43.888 L 74.655 43.888 C 75.31 47.333 78.331 49.938 81.967 49.938 L 81.967 49.938 C 84.316 49.938 86.407 48.846 87.772 47.148 L 87.772 47.148 C 88.498 46.244 89.02 45.172 89.263 43.993 L 89.263 43.993 C 89.298 43.816 89.321 43.636 89.345 43.456 L 89.345 43.456 C 89.374 43.231 89.39 43.005 89.399 42.774 L 89.399 42.774 C 89.402 42.679 89.413 42.585 89.413 42.489 L 89.413 42.489 C 89.413 38.378 86.079 35.043 81.967 35.043 L 81.967 35.043 C 80.202 35.043 78.584 35.66 77.308 36.684 Z M 78.339 43.918 C 78.28 43.768 78.232 43.613 78.192 43.456 L 78.192 43.456 C 78.136 43.235 78.098 43.007 78.08 42.774 L 78.08 42.774 C 78.074 42.679 78.066 42.585 78.066 42.489 L 78.066 42.489 C 78.066 41.118 78.774 39.915 79.844 39.221 L 79.844 39.221 C 80.455 38.822 81.183 38.59 81.967 38.59 L 81.967 38.59 C 84.12 38.59 85.867 40.335 85.867 42.489 L 85.867 42.489 C 85.867 42.585 85.86 42.679 85.853 42.774 L 85.853 42.774 C 85.836 43.007 85.798 43.235 85.741 43.456 L 85.741 43.456 C 85.697 43.632 85.643 43.803 85.575 43.969 L 85.575 43.969 C 85.482 44.196 85.368 44.41 85.235 44.613 L 85.235 44.613 C 84.54 45.683 83.338 46.391 81.967 46.391 L 81.967 46.391 C 80.317 46.391 78.909 45.366 78.339 43.918 Z " fill="url(#_lgradient_41)"></path><linearGradient id="_lgradient_42" x1="0.007198815010056592%" y1="50.00180052666252%" x2="99.97788347597165%" y2="50.00180052666252%"><stop offset="0%" stop-opacity="1" style="stop-color:rgb(128,0,128)"></stop><stop offset="10%" stop-opacity="1" style="stop-color:rgb(125,19,144)"></stop><stop offset="20%" stop-opacity="1" style="stop-color:rgb(122,35,157)"></stop><stop offset="30.000000000000004%" stop-opacity="1" style="stop-color:rgb(120,48,167)"></stop><stop offset="40%" stop-opacity="1" style="stop-color:rgb(119,58,175)"></stop><stop offset="50%" stop-opacity="1" style="stop-color:rgb(118,65,181)"></stop><stop offset="60%" stop-opacity="1" style="stop-color:rgb(117,70,185)"></stop><stop offset="70%" stop-opacity="1" style="stop-color:rgb(117,73,187)"></stop><stop offset="80%" stop-opacity="1" style="stop-color:rgb(117,75,189)"></stop><stop offset="89.99999999999999%" stop-opacity="1" style="stop-color:rgb(117,75,189)"></stop><stop offset="99.99999999999999%" stop-opacity="1" style="stop-color:rgb(117,75,189)"></stop></linearGradient><path d=" M 75.384 31.612 C 75.27 31.825 75.199 32.064 75.199 32.321 L 75.199 32.321 C 75.199 32.627 75.291 32.91 75.445 33.148 L 75.445 33.148 C 75.716 33.565 76.184 33.84 76.717 33.84 L 76.717 33.84 C 77.249 33.84 77.716 33.565 77.986 33.153 L 77.986 33.153 C 78.143 32.914 78.237 32.629 78.237 32.321 L 78.237 32.321 C 78.237 32.066 78.167 31.829 78.055 31.618 L 78.055 31.618 C 77.801 31.136 77.301 30.803 76.717 30.803 L 76.717 30.803 C 76.137 30.803 75.638 31.132 75.384 31.612 Z " fill="url(#_lgradient_42)"></path><linearGradient id="_lgradient_43" x1="-0.007675535956863655%" y1="50.013231956157256%" x2="99.98609649085282%" y2="50.013231956157256%"><stop offset="0%" stop-opacity="1" style="stop-color:rgb(128,0,128)"></stop><stop offset="10%" stop-opacity="1" style="stop-color:rgb(125,19,144)"></stop><stop offset="20%" stop-opacity="1" style="stop-color:rgb(122,35,157)"></stop><stop offset="30.000000000000004%" stop-opacity="1" style="stop-color:rgb(120,48,167)"></stop><stop offset="40%" stop-opacity="1" style="stop-color:rgb(119,58,175)"></stop><stop offset="50%" stop-opacity="1" style="stop-color:rgb(118,65,181)"></stop><stop offset="60%" stop-opacity="1" style="stop-color:rgb(117,70,185)"></stop><stop offset="70%" stop-opacity="1" style="stop-color:rgb(117,73,187)"></stop><stop offset="80%" stop-opacity="1" style="stop-color:rgb(117,75,189)"></stop><stop offset="89.99999999999999%" stop-opacity="1" style="stop-color:rgb(117,75,189)"></stop><stop offset="99.99999999999999%" stop-opacity="1" style="stop-color:rgb(117,75,189)"></stop></linearGradient><path d=" M 70.456 36.741 C 69.814 37.28 69.73 38.238 70.269 38.88 L 70.269 38.88 C 70.808 39.523 71.766 39.605 72.408 39.067 L 72.408 39.067 C 73.051 38.529 73.135 37.57 72.596 36.928 L 72.596 36.928 C 72.296 36.57 71.865 36.385 71.432 36.385 L 71.432 36.385 C 71.087 36.385 70.741 36.501 70.456 36.741 Z " fill="url(#_lgradient_43)"></path><linearGradient id="_lgradient_44" x1="-0.005551813300286312%" y1="49.97893309702235%" x2="100.00180339213252%" y2="49.97893309702235%"><stop offset="0%" stop-opacity="1" style="stop-color:rgb(128,0,128)"></stop><stop offset="10%" stop-opacity="1" style="stop-color:rgb(125,19,144)"></stop><stop offset="20%" stop-opacity="1" style="stop-color:rgb(122,35,157)"></stop><stop offset="30.000000000000004%" stop-opacity="1" style="stop-color:rgb(120,48,167)"></stop><stop offset="40%" stop-opacity="1" style="stop-color:rgb(119,58,175)"></stop><stop offset="50%" stop-opacity="1" style="stop-color:rgb(118,65,181)"></stop><stop offset="60%" stop-opacity="1" style="stop-color:rgb(117,70,185)"></stop><stop offset="70%" stop-opacity="1" style="stop-color:rgb(117,73,187)"></stop><stop offset="80%" stop-opacity="1" style="stop-color:rgb(117,75,189)"></stop><stop offset="89.99999999999999%" stop-opacity="1" style="stop-color:rgb(117,75,189)"></stop><stop offset="99.99999999999999%" stop-opacity="1" style="stop-color:rgb(117,75,189)"></stop></linearGradient><path d=" M 69.477 45.314 C 69.33 46.138 69.882 46.928 70.707 47.072 L 70.707 47.072 C 71.534 47.218 72.321 46.666 72.468 45.84 L 72.468 45.84 C 72.613 45.015 72.062 44.227 71.236 44.082 L 71.236 44.082 C 71.146 44.065 71.057 44.059 70.97 44.059 L 70.97 44.059 C 70.247 44.058 69.606 44.576 69.477 45.314 Z " fill="url(#_lgradient_44)"></path><linearGradient id="_lgradient_45" x1="0.005090759214709806%" y1="49.99151653366383%" x2="100.00429688970698%" y2="49.99151653366383%"><stop offset="0%" stop-opacity="1" style="stop-color:rgb(128,0,128)"></stop><stop offset="10%" stop-opacity="1" style="stop-color:rgb(125,19,144)"></stop><stop offset="20%" stop-opacity="1" style="stop-color:rgb(122,35,157)"></stop><stop offset="30.000000000000004%" stop-opacity="1" style="stop-color:rgb(120,48,167)"></stop><stop offset="40%" stop-opacity="1" style="stop-color:rgb(119,58,175)"></stop><stop offset="50%" stop-opacity="1" style="stop-color:rgb(118,65,181)"></stop><stop offset="60%" stop-opacity="1" style="stop-color:rgb(117,70,185)"></stop><stop offset="70%" stop-opacity="1" style="stop-color:rgb(117,73,187)"></stop><stop offset="80%" stop-opacity="1" style="stop-color:rgb(117,75,189)"></stop><stop offset="89.99999999999999%" stop-opacity="1" style="stop-color:rgb(117,75,189)"></stop><stop offset="99.99999999999999%" stop-opacity="1" style="stop-color:rgb(117,75,189)"></stop></linearGradient><path d=" M 74.792 50.435 C 74.066 50.855 73.817 51.785 74.236 52.51 L 74.236 52.51 C 74.656 53.238 75.584 53.485 76.311 53.069 L 76.311 53.069 C 77.037 52.647 77.285 51.718 76.866 50.993 L 76.866 50.993 C 76.585 50.505 76.074 50.232 75.55 50.232 L 75.55 50.232 C 75.292 50.232 75.031 50.297 74.792 50.435 Z " fill="url(#_lgradient_45)"></path><linearGradient id="_lgradient_46" x1="-0.004138076011983571%" y1="49.994116682842815%" x2="99.9945787778266%" y2="49.994116682842815%"><stop offset="0%" stop-opacity="1" style="stop-color:rgb(128,0,128)"></stop><stop offset="10%" stop-opacity="1" style="stop-color:rgb(125,19,144)"></stop><stop offset="20%" stop-opacity="1" style="stop-color:rgb(122,35,157)"></stop><stop offset="30.000000000000004%" stop-opacity="1" style="stop-color:rgb(120,48,167)"></stop><stop offset="40%" stop-opacity="1" style="stop-color:rgb(119,58,175)"></stop><stop offset="50%" stop-opacity="1" style="stop-color:rgb(118,65,181)"></stop><stop offset="60%" stop-opacity="1" style="stop-color:rgb(117,70,185)"></stop><stop offset="70%" stop-opacity="1" style="stop-color:rgb(117,73,187)"></stop><stop offset="80%" stop-opacity="1" style="stop-color:rgb(117,75,189)"></stop><stop offset="89.99999999999999%" stop-opacity="1" style="stop-color:rgb(117,75,189)"></stop><stop offset="99.99999999999999%" stop-opacity="1" style="stop-color:rgb(117,75,189)"></stop></linearGradient><path d=" M 81.601 53.017 C 81.315 53.807 81.721 54.678 82.509 54.964 L 82.509 54.964 C 83.296 55.251 84.169 54.845 84.454 54.057 L 84.454 54.057 C 84.743 53.268 84.336 52.397 83.548 52.111 L 83.548 52.111 C 83.376 52.047 83.201 52.018 83.028 52.018 L 83.028 52.018 C 82.408 52.018 81.826 52.402 81.601 53.017 Z " fill="url(#_lgradient_46)"></path><linearGradient id="_lgradient_47" x1="-0.008147783449174995%" y1="50.01023459709515%" x2="100.01049301619851%" y2="50.01023459709515%"><stop offset="0%" stop-opacity="1" style="stop-color:rgb(128,0,128)"></stop><stop offset="10%" stop-opacity="1" style="stop-color:rgb(125,19,144)"></stop><stop offset="20%" stop-opacity="1" style="stop-color:rgb(122,35,157)"></stop><stop offset="30.000000000000004%" stop-opacity="1" style="stop-color:rgb(120,48,167)"></stop><stop offset="40%" stop-opacity="1" style="stop-color:rgb(119,58,175)"></stop><stop offset="50%" stop-opacity="1" style="stop-color:rgb(118,65,181)"></stop><stop offset="60%" stop-opacity="1" style="stop-color:rgb(117,70,185)"></stop><stop offset="70%" stop-opacity="1" style="stop-color:rgb(117,73,187)"></stop><stop offset="80%" stop-opacity="1" style="stop-color:rgb(117,75,189)"></stop><stop offset="89.99999999999999%" stop-opacity="1" style="stop-color:rgb(117,75,189)"></stop><stop offset="99.99999999999999%" stop-opacity="1" style="stop-color:rgb(117,75,189)"></stop></linearGradient><path d=" M 89.384 48.672 C 89.363 48.68 89.345 48.692 89.326 48.701 L 89.326 48.701 C 88.578 49.01 88.197 49.852 88.478 50.62 L 88.478 50.62 C 88.763 51.408 89.636 51.814 90.423 51.527 L 90.423 51.527 C 90.839 51.374 91.145 51.058 91.303 50.678 L 91.303 50.678 C 91.441 50.339 91.465 49.952 91.332 49.579 L 91.332 49.579 C 91.106 48.964 90.524 48.581 89.903 48.581 L 89.903 48.581 C 89.731 48.581 89.556 48.611 89.384 48.672 Z " fill="url(#_lgradient_47)"></path><linearGradient id="_lgradient_48" x1="-0.006979673703000344%" y1="50.0080311060799%" x2="100.00067187611741%" y2="50.0080311060799%"><stop offset="0%" stop-opacity="1" style="stop-color:rgb(128,0,128)"></stop><stop offset="10%" stop-opacity="1" style="stop-color:rgb(125,19,144)"></stop><stop offset="20%" stop-opacity="1" style="stop-color:rgb(122,35,157)"></stop><stop offset="30.000000000000004%" stop-opacity="1" style="stop-color:rgb(120,48,167)"></stop><stop offset="40%" stop-opacity="1" style="stop-color:rgb(119,58,175)"></stop><stop offset="50%" stop-opacity="1" style="stop-color:rgb(118,65,181)"></stop><stop offset="60%" stop-opacity="1" style="stop-color:rgb(117,70,185)"></stop><stop offset="70%" stop-opacity="1" style="stop-color:rgb(117,73,187)"></stop><stop offset="80%" stop-opacity="1" style="stop-color:rgb(117,75,189)"></stop><stop offset="89.99999999999999%" stop-opacity="1" style="stop-color:rgb(117,75,189)"></stop><stop offset="99.99999999999999%" stop-opacity="1" style="stop-color:rgb(117,75,189)"></stop></linearGradient><path d=" M 91.647 42.285 C 91.557 42.442 91.504 42.608 91.473 42.774 L 91.473 42.774 C 91.431 43.001 91.44 43.236 91.499 43.456 L 91.499 43.456 C 91.557 43.658 91.658 43.845 91.794 44.011 L 91.794 44.011 C 91.906 44.147 92.039 44.268 92.201 44.361 L 92.201 44.361 C 92.846 44.735 93.649 44.577 94.115 44.029 L 94.115 44.029 C 94.173 43.959 94.229 43.886 94.276 43.805 L 94.276 43.805 C 94.34 43.691 94.385 43.575 94.419 43.456 L 94.419 43.456 C 94.482 43.23 94.49 42.997 94.448 42.774 L 94.448 42.774 C 94.37 42.351 94.122 41.963 93.72 41.732 L 93.72 41.732 C 93.481 41.594 93.22 41.528 92.962 41.528 L 92.962 41.528 C 92.437 41.528 91.927 41.799 91.647 42.285 Z " fill="url(#_lgradient_48)"></path><linearGradient id="_lgradient_49" x1="0.002553481504818933%" y1="49.99241391497549%" x2="100.01358425674312%" y2="49.99241391497549%"><stop offset="0%" stop-opacity="1" style="stop-color:rgb(128,0,128)"></stop><stop offset="10%" stop-opacity="1" style="stop-color:rgb(125,19,144)"></stop><stop offset="20%" stop-opacity="1" style="stop-color:rgb(122,35,157)"></stop><stop offset="30.000000000000004%" stop-opacity="1" style="stop-color:rgb(120,48,167)"></stop><stop offset="40%" stop-opacity="1" style="stop-color:rgb(119,58,175)"></stop><stop offset="50%" stop-opacity="1" style="stop-color:rgb(118,65,181)"></stop><stop offset="60%" stop-opacity="1" style="stop-color:rgb(117,70,185)"></stop><stop offset="70%" stop-opacity="1" style="stop-color:rgb(117,73,187)"></stop><stop offset="80%" stop-opacity="1" style="stop-color:rgb(117,75,189)"></stop><stop offset="89.99999999999999%" stop-opacity="1" style="stop-color:rgb(117,75,189)"></stop><stop offset="99.99999999999999%" stop-opacity="1" style="stop-color:rgb(117,75,189)"></stop></linearGradient><path d=" M 90.506 34.184 C 90.459 34.191 90.416 34.208 90.37 34.221 L 90.37 34.221 C 89.623 34.426 89.137 35.162 89.274 35.941 L 89.274 35.941 C 89.419 36.767 90.207 37.32 91.033 37.173 L 91.033 37.173 C 91.858 37.029 92.411 36.241 92.264 35.415 L 92.264 35.415 C 92.16 34.821 91.722 34.374 91.177 34.221 L 91.177 34.221 C 91.042 34.183 90.901 34.161 90.756 34.161 L 90.756 34.161 C 90.674 34.161 90.59 34.168 90.506 34.184 Z " fill="url(#_lgradient_49)"></path><linearGradient id="_lgradient_50" x1="-0.002634887767172245%" y1="50.00275770622764%" x2="99.99209024441278%" y2="50.00275770622764%"><stop offset="0%" stop-opacity="1" style="stop-color:rgb(128,0,128)"></stop><stop offset="10%" stop-opacity="1" style="stop-color:rgb(125,19,144)"></stop><stop offset="20%" stop-opacity="1" style="stop-color:rgb(122,35,157)"></stop><stop offset="30.000000000000004%" stop-opacity="1" style="stop-color:rgb(120,48,167)"></stop><stop offset="40%" stop-opacity="1" style="stop-color:rgb(119,58,175)"></stop><stop offset="50%" stop-opacity="1" style="stop-color:rgb(118,65,181)"></stop><stop offset="60%" stop-opacity="1" style="stop-color:rgb(117,70,185)"></stop><stop offset="70%" stop-opacity="1" style="stop-color:rgb(117,73,187)"></stop><stop offset="80%" stop-opacity="1" style="stop-color:rgb(117,75,189)"></stop><stop offset="89.99999999999999%" stop-opacity="1" style="stop-color:rgb(117,75,189)"></stop><stop offset="99.99999999999999%" stop-opacity="1" style="stop-color:rgb(117,75,189)"></stop></linearGradient><path d=" M 83.191 30.466 C 82.934 30.774 82.823 31.152 82.842 31.522 L 82.842 31.522 C 82.864 31.927 83.043 32.325 83.378 32.607 L 83.378 32.607 C 84.021 33.146 84.979 33.061 85.518 32.418 L 85.518 32.418 C 85.775 32.113 85.885 31.734 85.867 31.364 L 85.867 31.364 C 85.846 30.958 85.666 30.561 85.33 30.279 L 85.33 30.279 C 85.045 30.041 84.699 29.924 84.354 29.924 L 84.354 29.924 C 83.921 29.924 83.491 30.108 83.191 30.466 Z " fill="url(#_lgradient_50)"></path><linearGradient id="_lgradient_51" x1="6.629456429780012%" y1="85.28907180977869%" x2="94.11660571450544%" y2="15.309040434334575%"><stop offset="0%" stop-opacity="1" style="stop-color:rgb(128,0,128)"></stop><stop offset="10%" stop-opacity="1" style="stop-color:rgb(125,19,144)"></stop><stop offset="20%" stop-opacity="1" style="stop-color:rgb(122,35,157)"></stop><stop offset="30.000000000000004%" stop-opacity="1" style="stop-color:rgb(120,48,167)"></stop><stop offset="40%" stop-opacity="1" style="stop-color:rgb(119,58,175)"></stop><stop offset="50%" stop-opacity="1" style="stop-color:rgb(118,65,181)"></stop><stop offset="60%" stop-opacity="1" style="stop-color:rgb(117,70,185)"></stop><stop offset="70%" stop-opacity="1" style="stop-color:rgb(117,73,187)"></stop><stop offset="80%" stop-opacity="1" style="stop-color:rgb(117,75,189)"></stop><stop offset="89.99999999999999%" stop-opacity="1" style="stop-color:rgb(117,75,189)"></stop><stop offset="99.99999999999999%" stop-opacity="1" style="stop-color:rgb(117,75,189)"></stop></linearGradient><path d=" M 214.502 7.49 L 207.246 59.498 L 239.756 59.498 L 239.756 59.499 C 239.756 66.685 245.583 72.51 252.77 72.51 L 252.77 72.51 L 252.77 59.498 L 259.254 59.498 C 259.254 52.337 253.448 46.529 246.286 46.529 L 246.286 46.529 L 221.847 46.529 L 227.514 7.49 L 214.502 7.49 Z M 239.756 14.019 L 239.756 26.988 C 239.756 34.176 245.583 40 252.77 40 L 252.77 40 L 252.77 14.019 L 239.756 14.019 Z " fill="url(#_lgradient_51)"></path><linearGradient id="_lgradient_52" x1="-0.0026595357596193026%" y1="49.99335915644565%" x2="100.00426148204937%" y2="49.99335915644565%"><stop offset="0%" stop-opacity="1" style="stop-color:rgb(128,0,128)"></stop><stop offset="10%" stop-opacity="1" style="stop-color:rgb(125,19,144)"></stop><stop offset="20%" stop-opacity="1" style="stop-color:rgb(122,35,157)"></stop><stop offset="30.000000000000004%" stop-opacity="1" style="stop-color:rgb(120,48,167)"></stop><stop offset="40%" stop-opacity="1" style="stop-color:rgb(119,58,175)"></stop><stop offset="50%" stop-opacity="1" style="stop-color:rgb(118,65,181)"></stop><stop offset="60%" stop-opacity="1" style="stop-color:rgb(117,70,185)"></stop><stop offset="70%" stop-opacity="1" style="stop-color:rgb(117,73,187)"></stop><stop offset="80%" stop-opacity="1" style="stop-color:rgb(117,75,189)"></stop><stop offset="89.99999999999999%" stop-opacity="1" style="stop-color:rgb(117,75,189)"></stop><stop offset="99.99999999999999%" stop-opacity="1" style="stop-color:rgb(117,75,189)"></stop></linearGradient><path d=" M 385.213 23.897 C 385.213 23.897 385.12 25.777 386.804 26.996 L 386.804 26.996 C 387.908 27.796 390.74 27.633 391.447 28.41 L 391.447 28.41 C 391.447 28.41 390.785 25.982 388.656 24.44 L 388.656 24.44 C 387.907 23.898 387.042 23.763 386.367 23.763 L 386.367 23.763 C 385.697 23.763 385.213 23.897 385.213 23.897 Z " fill="url(#_lgradient_52)"></path><linearGradient id="_lgradient_53" x1="-0.003478885377461438%" y1="50.01158533297385%" x2="99.99528727377225%" y2="50.01158533297385%"><stop offset="0%" stop-opacity="1" style="stop-color:rgb(128,0,128)"></stop><stop offset="10%" stop-opacity="1" style="stop-color:rgb(125,19,144)"></stop><stop offset="20%" stop-opacity="1" style="stop-color:rgb(122,35,157)"></stop><stop offset="30.000000000000004%" stop-opacity="1" style="stop-color:rgb(120,48,167)"></stop><stop offset="40%" stop-opacity="1" style="stop-color:rgb(119,58,175)"></stop><stop offset="50%" stop-opacity="1" style="stop-color:rgb(118,65,181)"></stop><stop offset="60%" stop-opacity="1" style="stop-color:rgb(117,70,185)"></stop><stop offset="70%" stop-opacity="1" style="stop-color:rgb(117,73,187)"></stop><stop offset="80%" stop-opacity="1" style="stop-color:rgb(117,75,189)"></stop><stop offset="89.99999999999999%" stop-opacity="1" style="stop-color:rgb(117,75,189)"></stop><stop offset="99.99999999999999%" stop-opacity="1" style="stop-color:rgb(117,75,189)"></stop></linearGradient><path d=" M 378.927 24.19 C 378.927 24.19 379.182 26.055 381.064 26.941 L 381.064 26.941 C 381.668 27.226 382.637 27.208 383.567 27.19 L 383.567 27.19 C 384.535 27.17 385.462 27.15 385.889 27.472 L 385.889 27.472 C 385.889 27.472 384.788 25.209 382.41 24.088 L 382.41 24.088 C 381.899 23.847 381.374 23.763 380.891 23.763 L 380.891 23.763 C 379.8 23.763 378.927 24.19 378.927 24.19 Z " fill="url(#_lgradient_53)"></path><linearGradient id="_lgradient_54" x1="-0.007543025046174989%" y1="50.001262107426925%" x2="99.99890583461521%" y2="50.001262107426925%"><stop offset="0%" stop-opacity="1" style="stop-color:rgb(128,0,128)"></stop><stop offset="10%" stop-opacity="1" style="stop-color:rgb(125,19,144)"></stop><stop offset="20%" stop-opacity="1" style="stop-color:rgb(122,35,157)"></stop><stop offset="30.000000000000004%" stop-opacity="1" style="stop-color:rgb(120,48,167)"></stop><stop offset="40%" stop-opacity="1" style="stop-color:rgb(119,58,175)"></stop><stop offset="50%" stop-opacity="1" style="stop-color:rgb(118,65,181)"></stop><stop offset="60%" stop-opacity="1" style="stop-color:rgb(117,70,185)"></stop><stop offset="70%" stop-opacity="1" style="stop-color:rgb(117,73,187)"></stop><stop offset="80%" stop-opacity="1" style="stop-color:rgb(117,75,189)"></stop><stop offset="89.99999999999999%" stop-opacity="1" style="stop-color:rgb(117,75,189)"></stop><stop offset="99.99999999999999%" stop-opacity="1" style="stop-color:rgb(117,75,189)"></stop></linearGradient><path d=" M 374.148 26.171 C 374.148 26.171 374.517 28.016 376.447 28.787 L 376.447 28.787 C 377.063 29.035 378.02 28.959 378.941 28.885 L 378.941 28.885 C 379.913 28.807 380.845 28.727 381.295 29.025 L 381.295 29.025 C 381.295 29.025 380.061 26.833 377.618 25.857 L 377.618 25.857 C 377.182 25.684 376.742 25.618 376.329 25.618 L 376.329 25.618 C 375.125 25.618 374.148 26.171 374.148 26.171 Z " fill="url(#_lgradient_54)"></path><linearGradient id="_lgradient_55" x1="-0.006397186022866208%" y1="50.00383130261241%" x2="100.00369392226958%" y2="50.00383130261241%"><stop offset="0%" stop-opacity="1" style="stop-color:rgb(128,0,128)"></stop><stop offset="10%" stop-opacity="1" style="stop-color:rgb(125,19,144)"></stop><stop offset="20%" stop-opacity="1" style="stop-color:rgb(122,35,157)"></stop><stop offset="30.000000000000004%" stop-opacity="1" style="stop-color:rgb(120,48,167)"></stop><stop offset="40%" stop-opacity="1" style="stop-color:rgb(119,58,175)"></stop><stop offset="50%" stop-opacity="1" style="stop-color:rgb(118,65,181)"></stop><stop offset="60%" stop-opacity="1" style="stop-color:rgb(117,70,185)"></stop><stop offset="70%" stop-opacity="1" style="stop-color:rgb(117,73,187)"></stop><stop offset="80%" stop-opacity="1" style="stop-color:rgb(117,75,189)"></stop><stop offset="89.99999999999999%" stop-opacity="1" style="stop-color:rgb(117,75,189)"></stop><stop offset="99.99999999999999%" stop-opacity="1" style="stop-color:rgb(117,75,189)"></stop></linearGradient><path d=" M 369.857 29.734 C 369.857 29.734 370.676 31.732 373.018 32.178 L 373.018 32.178 C 373.752 32.32 374.788 32.04 375.792 31.758 L 375.792 31.758 C 376.889 31.452 377.947 31.147 378.528 31.387 L 378.528 31.387 C 378.528 31.387 376.658 29.19 373.696 28.624 L 373.696 28.624 C 373.456 28.578 373.219 28.558 372.989 28.558 L 372.989 28.558 C 371.237 28.558 369.857 29.734 369.857 29.734 Z " fill="url(#_lgradient_55)"></path><linearGradient id="_lgradient_56" x1="0.010978911886638798%" y1="50.00345450972681%" x2="100.00046075153222%" y2="50.00345450972681%"><stop offset="0%" stop-opacity="1" style="stop-color:rgb(128,0,128)"></stop><stop offset="10%" stop-opacity="1" style="stop-color:rgb(125,19,144)"></stop><stop offset="20%" stop-opacity="1" style="stop-color:rgb(122,35,157)"></stop><stop offset="30.000000000000004%" stop-opacity="1" style="stop-color:rgb(120,48,167)"></stop><stop offset="40%" stop-opacity="1" style="stop-color:rgb(119,58,175)"></stop><stop offset="50%" stop-opacity="1" style="stop-color:rgb(118,65,181)"></stop><stop offset="60%" stop-opacity="1" style="stop-color:rgb(117,70,185)"></stop><stop offset="70%" stop-opacity="1" style="stop-color:rgb(117,73,187)"></stop><stop offset="80%" stop-opacity="1" style="stop-color:rgb(117,75,189)"></stop><stop offset="89.99999999999999%" stop-opacity="1" style="stop-color:rgb(117,75,189)"></stop><stop offset="99.99999999999999%" stop-opacity="1" style="stop-color:rgb(117,75,189)"></stop></linearGradient><path d=" M 392.341 26.576 C 392.341 26.576 391.972 28.285 393.332 29.656 L 393.332 29.656 C 394.222 30.557 396.844 30.834 397.374 31.653 L 397.374 31.653 C 397.374 31.653 397.133 29.328 395.413 27.595 L 395.413 27.595 C 394.503 26.676 393.214 26.564 392.638 26.564 L 392.638 26.564 C 392.453 26.564 392.341 26.576 392.341 26.576 Z " fill="url(#_lgradient_56)"></path><linearGradient id="_lgradient_57" x1="-0.005117430899304054%" y1="50.00765368601492%" x2="100.00711455504003%" y2="50.00765368601492%"><stop offset="0%" stop-opacity="1" style="stop-color:rgb(2,1,105)"></stop><stop offset="10%" stop-opacity="1" style="stop-color:rgb(28,15,125)"></stop><stop offset="20%" stop-opacity="1" style="stop-color:rgb(50,27,141)"></stop><stop offset="30.000000000000004%" stop-opacity="1" style="stop-color:rgb(66,37,154)"></stop><stop offset="40%" stop-opacity="1" style="stop-color:rgb(79,44,164)"></stop><stop offset="50%" stop-opacity="1" style="stop-color:rgb(89,50,172)"></stop><stop offset="60%" stop-opacity="1" style="stop-color:rgb(95,53,177)"></stop><stop offset="70%" stop-opacity="1" style="stop-color:rgb(99,56,180)"></stop><stop offset="80%" stop-opacity="1" style="stop-color:rgb(101,57,182)"></stop><stop offset="89.99999999999999%" stop-opacity="1" style="stop-color:rgb(102,57,182)"></stop><stop offset="99.99999999999999%" stop-opacity="1" style="stop-color:rgb(103,58,182)"></stop></linearGradient><path d=" M 396.847 26.678 C 396.847 26.678 396.891 28.476 398.582 29.519 L 398.582 29.519 C 399.691 30.203 402.379 29.849 403.106 30.54 L 403.106 30.54 C 403.106 30.54 402.305 28.273 400.166 26.953 L 400.166 26.953 C 399.543 26.569 398.863 26.457 398.282 26.457 L 398.282 26.457 C 397.467 26.457 396.847 26.678 396.847 26.678 Z " fill="url(#_lgradient_57)"></path><linearGradient id="_lgradient_58" x1="0.0027893239959553284%" y1="50.000095529699884%" x2="100.00631030345772%" y2="50.000095529699884%"><stop offset="0%" stop-opacity="1" style="stop-color:rgb(128,0,128)"></stop><stop offset="10%" stop-opacity="1" style="stop-color:rgb(125,19,144)"></stop><stop offset="20%" stop-opacity="1" style="stop-color:rgb(122,35,157)"></stop><stop offset="30.000000000000004%" stop-opacity="1" style="stop-color:rgb(120,48,167)"></stop><stop offset="40%" stop-opacity="1" style="stop-color:rgb(119,58,175)"></stop><stop offset="50%" stop-opacity="1" style="stop-color:rgb(118,65,181)"></stop><stop offset="60%" stop-opacity="1" style="stop-color:rgb(117,70,185)"></stop><stop offset="70%" stop-opacity="1" style="stop-color:rgb(117,73,187)"></stop><stop offset="80%" stop-opacity="1" style="stop-color:rgb(117,75,189)"></stop><stop offset="89.99999999999999%" stop-opacity="1" style="stop-color:rgb(117,75,189)"></stop><stop offset="99.99999999999999%" stop-opacity="1" style="stop-color:rgb(117,75,189)"></stop></linearGradient><path d=" M 366.358 20.861 C 365.556 22.813 366.679 24.844 366.679 24.844 L 366.679 24.844 C 366.679 24.844 368.8 24.44 369.706 22.234 L 369.706 22.234 C 370.3 20.79 369.355 17.676 370.031 16.678 L 370.031 16.678 C 370.031 16.678 367.504 18.071 366.358 20.861 Z " fill="url(#_lgradient_58)"></path><linearGradient id="_lgradient_59" x1="-0.00538179781202075%" y1="50.00042569551084%" x2="99.99936976649337%" y2="50.00042569551084%"><stop offset="0%" stop-opacity="1" style="stop-color:rgb(128,0,128)"></stop><stop offset="10%" stop-opacity="1" style="stop-color:rgb(125,19,144)"></stop><stop offset="20%" stop-opacity="1" style="stop-color:rgb(122,35,157)"></stop><stop offset="30.000000000000004%" stop-opacity="1" style="stop-color:rgb(120,48,167)"></stop><stop offset="40%" stop-opacity="1" style="stop-color:rgb(119,58,175)"></stop><stop offset="50%" stop-opacity="1" style="stop-color:rgb(118,65,181)"></stop><stop offset="60%" stop-opacity="1" style="stop-color:rgb(117,70,185)"></stop><stop offset="70%" stop-opacity="1" style="stop-color:rgb(117,73,187)"></stop><stop offset="80%" stop-opacity="1" style="stop-color:rgb(117,75,189)"></stop><stop offset="89.99999999999999%" stop-opacity="1" style="stop-color:rgb(117,75,189)"></stop><stop offset="99.99999999999999%" stop-opacity="1" style="stop-color:rgb(117,75,189)"></stop></linearGradient><path d=" M 373.114 17.87 C 371.638 19.38 371.918 21.684 371.918 21.684 L 371.918 21.684 C 371.918 21.684 374.036 22.106 375.702 20.398 L 375.702 20.398 C 376.794 19.279 377.085 16.039 378.085 15.368 L 378.085 15.368 C 378.085 15.368 375.22 15.713 373.114 17.87 Z " fill="url(#_lgradient_59)"></path><linearGradient id="_lgradient_60" x1="-0.003853619729454749%" y1="50.001920411648015%" x2="99.99863166268952%" y2="50.001920411648015%"><stop offset="0%" stop-opacity="1" style="stop-color:rgb(128,0,128)"></stop><stop offset="10%" stop-opacity="1" style="stop-color:rgb(125,19,144)"></stop><stop offset="20%" stop-opacity="1" style="stop-color:rgb(122,35,157)"></stop><stop offset="30.000000000000004%" stop-opacity="1" style="stop-color:rgb(120,48,167)"></stop><stop offset="40%" stop-opacity="1" style="stop-color:rgb(119,58,175)"></stop><stop offset="50%" stop-opacity="1" style="stop-color:rgb(118,65,181)"></stop><stop offset="60%" stop-opacity="1" style="stop-color:rgb(117,70,185)"></stop><stop offset="70%" stop-opacity="1" style="stop-color:rgb(117,73,187)"></stop><stop offset="80%" stop-opacity="1" style="stop-color:rgb(117,75,189)"></stop><stop offset="89.99999999999999%" stop-opacity="1" style="stop-color:rgb(117,75,189)"></stop><stop offset="99.99999999999999%" stop-opacity="1" style="stop-color:rgb(117,75,189)"></stop></linearGradient><path d=" M 380.667 17.069 C 379.164 17.999 378.927 19.927 378.927 19.927 L 378.927 19.927 C 378.927 19.927 380.563 20.696 382.26 19.644 L 382.26 19.644 C 383.373 18.958 384.264 16.382 385.212 16.04 L 385.212 16.04 C 385.212 16.04 384.981 16.011 384.599 16.011 L 384.599 16.011 C 383.749 16.011 382.148 16.153 380.667 17.069 Z " fill="url(#_lgradient_60)"></path><linearGradient id="_lgradient_61" x1="0.004176396117827608%" y1="49.98452434791005%" x2="99.99571388380986%" y2="49.98452434791005%"><stop offset="0%" stop-opacity="1" style="stop-color:rgb(128,0,128)"></stop><stop offset="10%" stop-opacity="1" style="stop-color:rgb(125,19,144)"></stop><stop offset="20%" stop-opacity="1" style="stop-color:rgb(122,35,157)"></stop><stop offset="30.000000000000004%" stop-opacity="1" style="stop-color:rgb(120,48,167)"></stop><stop offset="40%" stop-opacity="1" style="stop-color:rgb(119,58,175)"></stop><stop offset="50%" stop-opacity="1" style="stop-color:rgb(118,65,181)"></stop><stop offset="60%" stop-opacity="1" style="stop-color:rgb(117,70,185)"></stop><stop offset="70%" stop-opacity="1" style="stop-color:rgb(117,73,187)"></stop><stop offset="80%" stop-opacity="1" style="stop-color:rgb(117,75,189)"></stop><stop offset="89.99999999999999%" stop-opacity="1" style="stop-color:rgb(117,75,189)"></stop><stop offset="99.99999999999999%" stop-opacity="1" style="stop-color:rgb(117,75,189)"></stop></linearGradient><path d=" M 386.549 17.554 C 384.85 18.255 384.279 20.194 384.279 20.194 L 384.279 20.194 C 384.279 20.194 385.828 21.261 387.749 20.47 L 387.749 20.47 C 389.007 19.952 390.357 17.459 391.388 17.267 L 391.388 17.267 C 391.388 17.267 390.557 17.022 389.378 17.022 L 389.378 17.022 C 388.55 17.022 387.551 17.142 386.549 17.554 Z " fill="url(#_lgradient_61)"></path><linearGradient id="_lgradient_62" x1="0.010953703703364681%" y1="50.00302188974928%" x2="99.99235185185213%" y2="50.00302188974928%"><stop offset="0%" stop-opacity="1" style="stop-color:rgb(128,0,128)"></stop><stop offset="10%" stop-opacity="1" style="stop-color:rgb(125,19,144)"></stop><stop offset="20%" stop-opacity="1" style="stop-color:rgb(122,35,157)"></stop><stop offset="30.000000000000004%" stop-opacity="1" style="stop-color:rgb(120,48,167)"></stop><stop offset="40%" stop-opacity="1" style="stop-color:rgb(119,58,175)"></stop><stop offset="50%" stop-opacity="1" style="stop-color:rgb(118,65,181)"></stop><stop offset="60%" stop-opacity="1" style="stop-color:rgb(117,70,185)"></stop><stop offset="70%" stop-opacity="1" style="stop-color:rgb(117,73,187)"></stop><stop offset="80%" stop-opacity="1" style="stop-color:rgb(117,75,189)"></stop><stop offset="89.99999999999999%" stop-opacity="1" style="stop-color:rgb(117,75,189)"></stop><stop offset="99.99999999999999%" stop-opacity="1" style="stop-color:rgb(117,75,189)"></stop></linearGradient><path d=" M 392.413 18.618 C 390.605 18.839 389.548 20.539 389.548 20.539 L 389.548 20.539 C 389.548 20.539 390.746 21.964 392.788 21.718 L 392.788 21.718 C 394.126 21.555 396.073 19.533 397.108 19.623 L 397.108 19.623 C 397.108 19.623 395.419 18.571 393.217 18.571 L 393.217 18.571 C 392.956 18.571 392.687 18.585 392.413 18.618 Z " fill="url(#_lgradient_62)"></path><linearGradient id="_lgradient_63" x1="-0.004626084560754862%" y1="50.00109899956939%" x2="99.99182344029762%" y2="50.00109899956939%"><stop offset="0%" stop-opacity="1" style="stop-color:rgb(128,0,128)"></stop><stop offset="10%" stop-opacity="1" style="stop-color:rgb(125,19,144)"></stop><stop offset="20%" stop-opacity="1" style="stop-color:rgb(122,35,157)"></stop><stop offset="30.000000000000004%" stop-opacity="1" style="stop-color:rgb(120,48,167)"></stop><stop offset="40%" stop-opacity="1" style="stop-color:rgb(119,58,175)"></stop><stop offset="50%" stop-opacity="1" style="stop-color:rgb(118,65,181)"></stop><stop offset="60%" stop-opacity="1" style="stop-color:rgb(117,70,185)"></stop><stop offset="70%" stop-opacity="1" style="stop-color:rgb(117,73,187)"></stop><stop offset="80%" stop-opacity="1" style="stop-color:rgb(117,75,189)"></stop><stop offset="89.99999999999999%" stop-opacity="1" style="stop-color:rgb(117,75,189)"></stop><stop offset="99.99999999999999%" stop-opacity="1" style="stop-color:rgb(117,75,189)"></stop></linearGradient><path d=" M 393.931 22.674 C 393.931 22.674 394.658 24.321 396.619 24.641 L 396.619 24.641 C 397.232 24.742 398.088 24.486 398.917 24.232 L 398.917 24.232 C 399.825 23.952 400.701 23.672 401.192 23.859 L 401.192 23.859 C 401.192 23.859 399.585 22.07 397.106 21.666 L 397.106 21.666 C 396.935 21.637 396.766 21.624 396.602 21.624 L 396.602 21.624 C 395.099 21.624 393.931 22.674 393.931 22.674 Z " fill="url(#_lgradient_63)"></path><linearGradient id="_lgradient_64" x1="-0.0008196070648835985%" y1="49.99914307615043%" x2="100.00042071839647%" y2="49.99914307615043%"><stop offset="0%" stop-opacity="1" style="stop-color:rgb(128,0,128)"></stop><stop offset="10%" stop-opacity="1" style="stop-color:rgb(125,19,144)"></stop><stop offset="20%" stop-opacity="1" style="stop-color:rgb(122,35,157)"></stop><stop offset="30.000000000000004%" stop-opacity="1" style="stop-color:rgb(120,48,167)"></stop><stop offset="40%" stop-opacity="1" style="stop-color:rgb(119,58,175)"></stop><stop offset="50%" stop-opacity="1" style="stop-color:rgb(118,65,181)"></stop><stop offset="60%" stop-opacity="1" style="stop-color:rgb(117,70,185)"></stop><stop offset="70%" stop-opacity="1" style="stop-color:rgb(117,73,187)"></stop><stop offset="80%" stop-opacity="1" style="stop-color:rgb(117,75,189)"></stop><stop offset="89.99999999999999%" stop-opacity="1" style="stop-color:rgb(117,75,189)"></stop><stop offset="99.99999999999999%" stop-opacity="1" style="stop-color:rgb(117,75,189)"></stop></linearGradient><path d=" M 361.179 41.583 C 361.179 48.51 364.541 54.647 369.719 58.463 L 369.719 58.463 C 365.637 54.64 363.084 49.204 363.084 43.171 L 363.084 43.171 C 363.084 31.597 372.466 22.215 384.038 22.215 L 384.038 22.215 C 388.685 22.215 392.978 23.732 396.452 26.291 L 396.452 26.291 C 392.706 22.781 387.672 20.63 382.133 20.63 L 382.133 20.63 C 370.56 20.63 361.179 30.011 361.179 41.583 Z " fill="url(#_lgradient_64)"></path><linearGradient id="_lgradient_65" x1="-0.0015561546492293132%" y1="50.00120391430585%" x2="99.9996227116016%" y2="50.00120391430585%"><stop offset="0%" stop-opacity="1" style="stop-color:rgb(128,0,128)"></stop><stop offset="10%" stop-opacity="1" style="stop-color:rgb(125,19,144)"></stop><stop offset="20%" stop-opacity="1" style="stop-color:rgb(122,35,157)"></stop><stop offset="30.000000000000004%" stop-opacity="1" style="stop-color:rgb(120,48,167)"></stop><stop offset="40%" stop-opacity="1" style="stop-color:rgb(119,58,175)"></stop><stop offset="50%" stop-opacity="1" style="stop-color:rgb(118,65,181)"></stop><stop offset="60%" stop-opacity="1" style="stop-color:rgb(117,70,185)"></stop><stop offset="70%" stop-opacity="1" style="stop-color:rgb(117,73,187)"></stop><stop offset="80%" stop-opacity="1" style="stop-color:rgb(117,75,189)"></stop><stop offset="89.99999999999999%" stop-opacity="1" style="stop-color:rgb(117,75,189)"></stop><stop offset="99.99999999999999%" stop-opacity="1" style="stop-color:rgb(117,75,189)"></stop></linearGradient><path d=" M 361.67 53.69 C 367.21 65.102 380.955 69.863 392.368 64.321 L 392.368 64.321 C 399.197 61.005 403.641 54.75 404.924 47.819 L 404.924 47.819 C 403.107 53.672 398.971 58.795 393.021 61.683 L 393.021 61.683 C 381.609 67.224 367.865 62.464 362.324 51.052 L 362.324 51.052 C 360.099 46.47 359.538 41.511 360.398 36.858 L 360.398 36.858 C 358.732 42.233 359.019 48.227 361.67 53.69 Z " fill="url(#_lgradient_65)"></path></g></g></svg> 