<?xml version="1.0" encoding="iso-8859-1"?>
<!-- Uploaded to: SVG Repo, www.svgrepo.com, Generator: SVG Repo Mixer Tools -->
<!DOCTYPE svg PUBLIC "-//W3C//DTD SVG 1.1//EN" "http://www.w3.org/Graphics/SVG/1.1/DTD/svg11.dtd">
<svg fill="#000000" height="800px" width="800px" version="1.1" id="Capa_1"
	xmlns="http://www.w3.org/2000/svg" xmlns:xlink="http://www.w3.org/1999/xlink"
	viewBox="0 0 407.104 407.104" xml:space="preserve">
<g>
	<path d="M127.964,251.319c-4.418,0-8,3.582-8,8c0,13.207-10.74,23.951-23.942,23.951c-13.206,0-23.95-10.744-23.95-23.951
		c0-13.204,10.744-23.947,23.95-23.947c4.418,0,8-3.582,8-8s-3.582-8-8-8c-22.028,0-39.95,17.92-39.95,39.947
		c0,22.029,17.922,39.951,39.95,39.951c22.024,0,39.942-17.922,39.942-39.951C135.964,254.901,132.382,251.319,127.964,251.319z"/>
	<path d="M350.834,291.32c-4.418,0-8,3.582-8,8c0,4.241-3.448,7.691-7.688,7.691c-4.24,0-7.69-3.45-7.69-7.691
		c0-4.24,3.45-7.689,7.69-7.689c4.418,0,8-3.582,8-8s-3.582-8-8-8c-13.063,0-23.69,10.627-23.69,23.689
		c0,13.063,10.628,23.691,23.69,23.691c13.062,0,23.688-10.628,23.688-23.691C358.834,294.901,355.252,291.32,350.834,291.32z"/>
	<path d="M375.104,178.884h-31.959v-56.375c0-4.091,0-10.939-5.634-16.573L325.386,93.81c-3.125-3.125-8.189-3.125-11.314,0
		c-3.124,3.124-3.124,8.189,0,11.313l12.125,12.125c0.588,0.588,0.948,1.157,0.948,5.26v56.375h-51.254l-15.112-96.993
		c-0.031-0.201-0.07-0.401-0.116-0.599c-3.894-16.561-20.268-29.533-37.279-29.533H120.018c-17.645,0-32,14.355-32,32v55.5H55.716
		c-4.418,0-8,3.582-8,8s3.582,8,8,8h32.302v8.376C38.802,167.719,0,209.069,0,259.315c0,52.951,43.078,96.029,96.029,96.029
		c41.714,0,77.294-26.752,90.508-64.002h93.164c-0.373,2.606-0.577,5.267-0.577,7.975c0,30.894,25.134,56.027,56.027,56.027
		c30.886,0,56.014-25.134,56.014-56.027c0-4.001-0.43-7.903-1.231-11.669c10.343-5.463,17.169-16.342,17.169-28.306v-48.458
		C407.104,193.239,392.748,178.884,375.104,178.884z M246.094,91.571l13.605,87.313h-64.13l-20.878-20.512
		c-9.18-9.019-25.16-16.371-39.11-18.482V91.571H246.094z M104.018,83.759c0-8.823,7.178-16,16-16h103.365
		c5.914,0,12.11,3.18,16.437,7.813H130.562c-6.056,0-10.981,4.927-10.981,10.982v52.705h-15.563V83.759z M96.029,339.345
		C51.901,339.345,16,303.444,16,259.315c0-44.122,35.901-80.018,80.029-80.018c44.115,0,80.005,35.896,80.005,80.018
		C176.034,303.444,140.145,339.345,96.029,339.345z M335.151,339.345c-22.071,0-40.027-17.956-40.027-40.027
		c0-22.067,17.956-40.021,40.027-40.021c22.063,0,40.014,17.953,40.014,40.021C375.165,321.389,357.215,339.345,335.151,339.345z
		 M384.273,272.425c-9.531-17.344-27.974-29.128-49.121-29.128c-22.318,0-41.624,13.119-50.625,32.045H190.69
		c0.88-5.214,1.344-10.567,1.344-16.027c0-50.254-38.803-91.608-88.017-95.683v-8.374h23.946c11.042,0,27.637,6.788,35.514,14.526
		l23.212,22.806c1.496,1.47,3.509,2.293,5.606,2.293h76.714c0.007,0,0.014,0.001,0.022,0.001c0.004,0,0.008-0.001,0.013-0.001
		h106.06c6.211,0,11.595,3.565,14.245,8.75H375.77c-4.418,0-8,3.582-8,8s3.582,8,8,8h15.334v39.708
		C391.104,264.615,388.45,269.474,384.273,272.425z"/>
	<path d="M327.437,203.634c-4.418,0-8,3.582-8,8v15.739c0,4.418,3.582,8,8,8s8-3.582,8-8v-15.739
		C335.437,207.215,331.854,203.634,327.437,203.634z"/>
	<path d="M303.433,203.634c-4.418,0-8,3.582-8,8v15.739c0,4.418,3.582,8,8,8s8-3.582,8-8v-15.739
		C311.433,207.215,307.851,203.634,303.433,203.634z"/>
	<path d="M279.429,203.634c-4.418,0-8,3.582-8,8v15.739c0,4.418,3.582,8,8,8s8-3.582,8-8v-15.739
		C287.429,207.215,283.847,203.634,279.429,203.634z"/>
	<path d="M255.425,203.634c-4.418,0-8,3.582-8,8v15.739c0,4.418,3.582,8,8,8s8-3.582,8-8v-15.739
		C263.425,207.215,259.843,203.634,255.425,203.634z"/>
</g>
</svg>
